<svg width="210" height="20" viewBox="0 0 210 20" fill="none" xmlns="http://www.w3.org/2000/svg">
<path d="M1.94265 2H4.27382V3.2H1.94265V2Z" fill="black"/>
<path d="M0 4.2H1.16559V7.2H0V4.2Z" fill="black"/>
<path d="M0 0.8H1.16559V2H0V0.8Z" fill="black"/>
<path d="M1.94265 8H3.10823V9.2H1.94265V8Z" fill="black"/>
<path d="M6.99352 7.2H8.15911V8.4H6.99352V7.2Z" fill="black"/>
<path d="M11.6559 9H12.8215V10.2H11.6559V9Z" fill="black"/>
<path d="M12.6272 5H13.7928V6.2H12.6272V5Z" fill="black"/>
<path d="M14.3756 3.2H15.5412V4.4H14.3756V3.2Z" fill="black"/>
<path d="M16.7068 3.2H17.8723V4.4H16.7068V3.2Z" fill="black"/>
<path d="M16.7068 5.2H17.8723V6.4H16.7068V5.2Z" fill="black"/>
<path d="M16.7068 7.2H17.8723V8.4H16.7068V7.2Z" fill="black"/>
<path d="M16.7068 9.2H17.8723V10.4H16.7068V9.2Z" fill="black"/>
<path d="M16.7068 12.8H17.8723V14H16.7068V12.8Z" fill="black"/>
<path d="M28.1684 9H29.3339V10.2H28.1684V9Z" fill="black"/>
<path d="M28.1684 10.2H29.3339V11.4H28.1684V10.2Z" fill="black"/>
<path d="M29.3339 10.2H30.4995V11.4H29.3339V10.2Z" fill="black"/>
<path d="M29.1397 12.2H30.3053V13.4H29.1397V12.2Z" fill="black"/>
<path d="M29.1397 14.4H30.3053V15.6H29.1397V14.4Z" fill="black"/>
<path d="M32.2479 15H33.4135V16.2H32.2479V15Z" fill="black"/>
<path d="M29.334 7.8H30.4995V9H29.3339L29.334 7.8Z" fill="black"/>
<path d="M29.334 4.8H30.4995V6H29.334V4.8Z" fill="black"/>
<path d="M33.4135 3.2H34.5791V4.4H33.4135V3.2Z" fill="black"/>
<path d="M37.6873 0.8H38.8529V2H37.6873V0.8Z" fill="black"/>
<path d="M41.9611 3.2H43.1267V4.4H41.9611V3.2Z" fill="black"/>
<path d="M60.6105 11.2H61.7761V12.4H60.6105V11.2Z" fill="black"/>
<path d="M62.9417 11.2H64.1073V12.4H62.9417V11.2Z" fill="black"/>
<path d="M64.1073 12.2H65.2729V13.4H64.1073V12.2Z" fill="black"/>
<path d="M67.4098 9H68.5754V10.2H67.4098V9Z" fill="black"/>
<path d="M68.1869 7.8H69.3524V9H68.1869V7.8Z" fill="black"/>
<path d="M68.9639 4.8H70.1295V6H68.9639V4.8Z" fill="black"/>
<path d="M81.3969 2H82.5624V5.2H81.3969V2Z" fill="black"/>
<path d="M82.5624 7.4H83.728V16.2H82.5624V7.4Z" fill="black"/>
<path d="M82.5624 16.8H83.728V19.2H82.5624V16.8Z" fill="black"/>
<path d="M85.2821 16.8H86.4477V19.2H85.2821V16.8Z" fill="black"/>
<path d="M86.4477 16.8H87.6133V18H86.4477L86.4477 16.8Z" fill="black"/>
<path d="M86.4477 16.8H87.6133V18H86.4477L86.4477 16.8Z" fill="black"/>
<path d="M92.2757 16.8H93.4413V18H92.2757V16.8Z" fill="black"/>
<path d="M89.556 10.2H90.7216V11.4H89.556V10.2Z" fill="black"/>
<path d="M91.3043 9H92.4699V10.2H91.3043V9Z" fill="black"/>
<path d="M103.737 1H106.068V3.4H103.737V1Z" fill="black"/>
<path d="M106.846 2.2H110.342V3.4H106.846V2.2Z" fill="black"/>
<path d="M108.011 1H109.177V2.2H108.011V1Z" fill="black"/>
<path d="M112.091 3H113.256V4.2H112.091V3Z" fill="black"/>
<path d="M113.839 1H115.005V3.4H113.839V1Z" fill="black"/>
<path d="M116.753 1H119.084V3.4H116.753V1Z" fill="black"/>
<path d="M115.005 2.2H116.17V3.4H115.005V2.2Z" fill="black"/>
<path d="M124.329 18.2H125.495V19.4H124.329V18.2Z" fill="black"/>
<path d="M134.043 12.2H135.208V13.4H134.043V12.2Z" fill="black"/>
<path d="M134.431 6H135.597V7.2H134.431V6Z" fill="black"/>
<path d="M136.179 6.4H137.345V14.2H136.179V6.4Z" fill="black"/>
<path d="M137.345 7.6H138.511V10H137.345V7.6Z" fill="black"/>
<path d="M137.345 13H138.511V14.2L137.345 14.2V13Z" fill="black"/>
<path d="M139.093 17.2H140.259V19.6H139.093V17.2Z" fill="black"/>
<path d="M139.093 13H140.259V15.8H139.093V13Z" fill="black"/>
<path d="M140.259 15H141.425V19.6H140.259L140.259 15Z" fill="black"/>
<path d="M152.692 1H153.858V6H152.692V1Z" fill="black"/>
<path d="M151.526 6H152.692V11H151.526V6Z" fill="black"/>
<path d="M151.526 12.2H152.692V19.2H151.526V12.2Z" fill="black"/>
<path d="M152.692 16.8H153.858V19.2H152.692V16.8Z" fill="black"/>
<path d="M155.412 16.8H156.577V19.2H155.412V16.8Z" fill="black"/>
<path d="M156.577 16.8H157.743V18H156.577V16.8Z" fill="black"/>
<path d="M161.24 16.8H162.405V19.2H161.24V16.8Z" fill="black"/>
<path d="M162.405 16.8H163.571V18H162.405V16.8Z" fill="black"/>
<path d="M174.838 14.2H176.004V19.4H174.838V14.2Z" fill="black"/>
<path d="M173.867 1H175.032V7.8H173.867V1Z" fill="black"/>
<path d="M175.032 4.2H176.198V13H175.032V4.2Z" fill="black"/>
<path d="M181.832 17H182.997V18.2H181.832V17Z" fill="black"/>
<path d="M183.774 9H184.94V10.2H183.774V9Z" fill="black"/>
<path d="M199.315 3H200.481V4.2H199.315V3Z" fill="black"/>
<path d="M200.481 0.8H201.647V3H200.481L200.481 0.8Z" fill="black"/>
<path d="M197.179 3.8H198.344V6.2H197.179V3.8Z" fill="black"/>
<path d="M199.121 5H200.287V8H199.121V5Z" fill="black"/>
<path d="M200.093 7H201.258V9.2H200.093V7Z" fill="black"/>
<path d="M204.172 10H205.338V11.2H204.172V10Z" fill="black"/>
<path d="M203.006 8H204.172V11.2H203.006V8Z" fill="black"/>
<path d="M205.92 8.8H207.086V12H205.92V8.8Z" fill="black"/>
<path d="M208.834 13H210V15.2H208.834V13Z" fill="black"/>
<path d="M205.92 16.2H207.086V19.2H205.92V16.2Z" fill="black"/>
<path d="M203.006 17.2H204.172V19.2H203.006V17.2Z" fill="black"/>
<path d="M200.093 16H201.258V19.2H200.093V16Z" fill="black"/>
<path d="M206.892 13H208.057V14.2H206.892V13Z" fill="black"/>
<path d="M207.086 15H208.252V16.2H207.086V15Z" fill="black"/>
<path d="M198.927 17H200.093V18.2H198.927V17Z" fill="black"/>
<path d="M198.927 14.8H200.093V16H198.927V14.8Z" fill="black"/>
<path d="M197.179 14.8H198.344V16H197.179V14.8Z" fill="black"/>
<path d="M207.086 17H208.252V18.2H207.086V17Z" fill="black"/>
<path d="M207.28 3.2H208.446V4.4H207.28V3.2Z" fill="black"/>
<path d="M204.172 2H205.338V3.2H204.172V2Z" fill="black"/>
<path d="M203.006 0H204.172V3.2L203.006 3.2V0Z" fill="black"/>
<path d="M206.115 1H207.28V4.4H206.115V1Z" fill="black"/>
<path d="M181.832 9H182.997V10.2H181.832V9Z" fill="black"/>
<path d="M176.781 10H177.946V11.2H176.781V10Z" fill="black"/>
<path d="M184.746 2H185.911V3.2H184.746V2Z" fill="black"/>
<path d="M183.58 0.8H184.746V3.2L183.58 3.2V0.8Z" fill="black"/>
<path d="M177.752 0.8H178.918V2H177.752V0.8Z" fill="black"/>
<path d="M176.781 2H179.889V3.2H176.781V2Z" fill="black"/>
<path d="M175.032 1H176.198V3H175.032L175.032 1Z" fill="black"/>
<path d="M180.666 7.8H181.832V11.2H180.666V7.8Z" fill="black"/>
<path d="M180.666 17H181.832V19.4H180.666V17Z" fill="black"/>
<path d="M183.386 17H185.717V19.4H183.386V17Z" fill="black"/>
<path d="M177.752 17H178.918V19.4H177.752V17Z" fill="black"/>
<path d="M177.946 7.8H179.112V11.2H177.946V7.8Z" fill="black"/>
<path d="M180.666 0.8H181.832V3.2H180.666V0.8Z" fill="black"/>
<path d="M184.551 15.8H185.717V17H184.551V15.8Z" fill="black"/>
<path d="M173.867 9.2H175.032V18.2H173.867V9.2Z" fill="black"/>
<path d="M158.326 16.8H159.491V19.2H158.326V16.8Z" fill="black"/>
<path d="M151.526 2H152.692V5.2H151.526V2Z" fill="black"/>
<path d="M152.692 7H153.858V16H152.692V7Z" fill="black"/>
<path d="M133.265 1H134.431V6H133.265V1Z" fill="black"/>
<path d="M134.431 3.8H135.597V5H134.431V3.8Z" fill="black"/>
<path d="M129.186 9.2H130.352V11.6H129.186V9.2Z" fill="black"/>
<path d="M132.877 12.2H134.043L134.043 14.6H132.877V12.2Z" fill="black"/>
<path d="M129.186 12.2H131.517V14.6H129.186V12.2Z" fill="black"/>
<path d="M129.186 5.6H130.352V8H129.186V5.6Z" fill="black"/>
<path d="M126.272 12H127.438V17.4H126.272V12Z" fill="black"/>
<path d="M127.438 10H128.603V16.2H127.438V10Z" fill="black"/>
<path d="M130.352 4H131.517V9.4H130.352V4Z" fill="black"/>
<path d="M112.091 5H113.256V6.2H112.091V5Z" fill="black"/>
<path d="M112.091 7H113.256V8.2H112.091V7Z" fill="black"/>
<path d="M112.091 9H113.256V10.2H112.091V9Z" fill="black"/>
<path d="M112.091 13H113.256V14.2H112.091V13Z" fill="black"/>
<path d="M112.091 15H113.256V16.2H112.091V15Z" fill="black"/>
<path d="M112.091 17H113.256V18.2H112.091V17Z" fill="black"/>
<path d="M110.925 1H112.091V19.2H110.925V1Z" fill="black"/>
<path d="M89.3617 2H90.5273V3.2H89.3617V2Z" fill="black"/>
<path d="M85.2821 0.8H86.4477V3.2H85.2821V0.8Z" fill="black"/>
<path d="M88.1961 0.8H89.3617L89.3617 3.2L88.1961 3.2V0.8Z" fill="black"/>
<path d="M91.3043 0.8H93.6355V3.2H91.3043V0.8Z" fill="black"/>
<path d="M86.4477 9H87.6133V10.2H86.4477V9Z" fill="black"/>
<path d="M88.3904 7.8H89.556L89.556 11.4H88.3904V7.8Z" fill="black"/>
<path d="M85.2821 7.8H86.4477V11.4H85.2821V7.8Z" fill="black"/>
<path d="M88.3904 16.8H89.556V19.2H88.3904V16.8Z" fill="black"/>
<path d="M91.3043 16.8H92.4699V19.2H91.3043V16.8Z" fill="black"/>
<path d="M82.5624 0.8H83.728V6.2H82.5624V0.8Z" fill="black"/>
<path d="M81.3969 6.2H82.5624L82.5624 11.2H81.3969V6.2Z" fill="black"/>
<path d="M81.3969 12.4H82.5624L82.5624 19.2H81.3969V12.4Z" fill="black"/>
<path d="M67.0213 4.8H68.1869V6H67.0213V4.8Z" fill="black"/>
<path d="M67.0213 2.8H68.1869V4H67.0213V2.8Z" fill="black"/>
<path d="M63.913 2H65.0786V3.2H63.913V2Z" fill="black"/>
<path d="M65.8557 0.8H67.0213V4L65.8557 4V0.8Z" fill="black"/>
<path d="M62.7475 0.8H63.913V3.2L62.7475 3.2V0.8Z" fill="black"/>
<path d="M67.0213 6.6H68.1869V7.8L67.0213 7.8V6.6Z" fill="black"/>
<path d="M67.4098 15H68.5754V16.2H67.4098V15Z" fill="black"/>
<path d="M67.0213 17H68.1869V18.2H67.0213V17Z" fill="black"/>
<path d="M68.9639 17H70.1295V18.2H68.9639V17Z" fill="black"/>
<path d="M66.2442 9H67.4098V16.2H66.2442V9Z" fill="black"/>
<path d="M56.3367 12H57.5023V13.2H56.3367V12Z" fill="black"/>
<path d="M57.5023 17.8H58.6679V19.2H57.5023V17.8Z" fill="black"/>
<path d="M57.5023 13.2H58.6679V16.8H57.5023L57.5023 13.2Z" fill="black"/>
<path d="M56.3367 14.4H57.5023V18H56.3367V14.4Z" fill="black"/>
<path d="M59.445 10H61.7761V11.2H59.445V10Z" fill="black"/>
<path d="M62.9417 10H65.2729V11.2H62.9417V10Z" fill="black"/>
<path d="M60.222 2H61.3876V3.2H60.222V2Z" fill="black"/>
<path d="M59.0564 0.8H61.3876V2H59.0564V0.8Z" fill="black"/>
<path d="M40.7956 15H43.1267V16.2H40.7956V15Z" fill="black"/>
<path d="M40.7956 17.4H43.1267V18.6H40.7956V17.4Z" fill="black"/>
<path d="M40.7956 16.2H41.9611V17.4H40.7956V16.2Z" fill="black"/>
<path d="M37.8816 16.8H39.0472V19.2H37.8816V16.8Z" fill="black"/>
<path d="M33.802 15.6H34.9676V18H33.802V15.6Z" fill="black"/>
<path d="M34.9676 15.6H36.1332V19.2H34.9676V15.6Z" fill="black"/>
<path d="M31.0823 12.2H32.2479V17H31.0823V12.2Z" fill="black"/>
<path d="M45.0694 5.2H46.235V13H45.0694V5.2Z" fill="black"/>
<path d="M56.3367 6H57.5023V10.8H56.3367V6Z" fill="black"/>
<path d="M57.5023 7.2H58.6679V12H57.5023L57.5023 7.2Z" fill="black"/>
<path d="M57.5023 1.2H58.6679V6H57.5023L57.5023 1.2Z" fill="black"/>
<path d="M56.3367 2.4H57.5023V4.8H56.3367V2.4Z" fill="black"/>
<path d="M43.9038 11.2H45.0694V16.2H43.9038V11.2Z" fill="black"/>
<path d="M43.9038 4H45.0694V8.6H43.9038V4Z" fill="black"/>
<path d="M40.7956 0.8H41.9611V4.4L40.7956 4.4V0.8Z" fill="black"/>
<path d="M36.5217 2H40.0185V3.2H36.5217V2Z" fill="black"/>
<path d="M33.4135 0.8H35.7447V3.2H33.4135V0.8Z" fill="black"/>
<path d="M31.0823 2.4H32.2479V7.2H31.0823V2.4Z" fill="black"/>
<path d="M15.5412 14H16.7068V18.8H15.5412V14Z" fill="black"/>
<path d="M16.7068 15.2H17.8723V16.4H16.7068V15.2Z" fill="black"/>
<path d="M16.7068 18.8H17.8723V20H16.7068V18.8Z" fill="black"/>
<path d="M15.5412 0.8H16.7068V12.8H15.5412V0.8Z" fill="black"/>
<path d="M6.99352 9.6H8.15911V10.8H6.99352V9.6Z" fill="black"/>
<path d="M8.93617 10H11.2673V13.2H8.93617V10Z" fill="black"/>
<path d="M11.6559 7H13.987V9.2H11.6559V7Z" fill="black"/>
<path d="M1.94265 10H3.10823V11.2H1.94265V10Z" fill="black"/>
<path d="M1.94265 12H3.10823V13.2H1.94265V12Z" fill="black"/>
<path d="M0 12H1.16559V13.2H0V12Z" fill="black"/>
<path d="M1.94265 14H3.10823V15.2H1.94265V14Z" fill="black"/>
<path d="M0 16H1.16559V17.2H0V16Z" fill="black"/>
<path d="M0 18.8H1.16559V20H0V18.8Z" fill="black"/>
<path d="M1.94265 18H3.10823V20H1.94265V18Z" fill="black"/>
<path d="M1.94265 16H3.10823V17.2H1.94265V16Z" fill="black"/>
<path d="M0 8.8H1.16559V11.2H0V8.8Z" fill="black"/>
<path d="M3.10823 3.2L4.27382 3.2V4.4H3.10823V3.2Z" fill="black"/>
<path d="M1.94265 4.2H5.43941V5.4H1.94265V4.2Z" fill="black"/>
<path d="M5.82794 6H6.99352V10.8H5.82794V6Z" fill="black"/>
</svg>
